<svg width="200" height="200" viewBox="0 0 200 200" fill="none" xmlns="http://www.w3.org/2000/svg">
<mask id="mask0_3604_39944" style="mask-type:alpha" maskUnits="userSpaceOnUse" x="0" y="0" width="200" height="200">
<rect width="200" height="200" fill="#D9D9D9"/>
</mask>
<g mask="url(#mask0_3604_39944)">
<path d="M114.348 100.574V158.028C114.425 158.419 114.425 158.821 114.348 159.212C113.975 160.053 113.662 161.165 112.975 161.58C112.288 161.994 111.099 161.734 110.43 161.301C106.026 158.419 101.7 155.412 97.3493 152.423C85.0302 144.026 72.7052 135.637 60.3743 127.256C59.6513 126.784 58.8111 126.521 57.9476 126.499C51.0048 126.44 44.062 126.499 37.1192 126.463C34.7872 126.463 34 125.688 34 123.385C34 108.123 34 92.86 34 77.5973C34 75.2297 34.7754 74.4663 37.2198 74.4663C43.9673 74.4663 50.7148 74.4307 57.4564 74.4663C58.6773 74.4903 59.8726 74.114 60.8597 73.3949C77.101 62.2793 93.358 51.1855 109.631 40.1133C110.025 39.8177 110.438 39.5488 110.868 39.3084C111.212 39.1115 111.6 39.0054 111.996 39.0002C112.392 38.995 112.783 39.0908 113.132 39.2785C113.481 39.4663 113.776 39.7398 113.99 40.0733C114.204 40.4068 114.329 40.7892 114.354 41.1846C114.384 41.6754 114.384 42.1675 114.354 42.6584L114.348 100.574ZM109.483 154.957V45.9847C109.169 46.1742 108.998 46.2689 108.838 46.3813C93.6303 56.7472 78.4228 67.1032 63.2154 77.4493C62.4222 77.9879 62.3335 78.6331 62.3335 79.4262C62.3335 93.4538 62.3335 107.482 62.3335 121.509C62.307 121.939 62.4045 122.368 62.6143 122.745C62.8241 123.121 63.1375 123.43 63.5172 123.634C72.5178 129.73 81.5026 135.846 90.4716 141.982L109.483 154.957ZM38.8061 79.2546V121.604H57.5333V79.2546H38.8061Z" fill="#677580"/>
<path d="M166.357 101.083C166.026 101.409 165.487 102.356 164.712 102.634C160 104.319 155.249 105.897 150.459 107.369C149.761 107.588 148.683 107.221 148.02 106.777C144.173 104.307 140.367 101.776 136.603 99.1832C136.214 98.8657 135.746 98.6595 135.249 98.5865C134.751 98.5136 134.244 98.5766 133.78 98.7689C130.08 100.089 126.34 101.29 122.605 102.516C120.871 103.107 119.527 102.516 119.107 101.142C118.687 99.7692 119.415 98.6151 121.078 98.0587C125.499 96.5672 129.956 95.0993 134.342 93.6077C134.871 93.4139 135.441 93.3589 135.998 93.448C136.554 93.5371 137.078 93.7673 137.52 94.1167C141.267 96.65 145.067 99.1004 148.766 101.675C149.18 102 149.674 102.204 150.196 102.267C150.718 102.329 151.247 102.248 151.726 102.03C155.472 100.698 159.26 99.4733 163.048 98.254C164.895 97.6976 166.398 98.7334 166.357 101.083Z" fill="#677580"/>
<path d="M131.288 75.7803C128.867 79.4026 126.553 82.8829 124.233 86.3454C123.961 86.7538 123.706 87.1799 123.404 87.5647C123.235 87.8241 123.016 88.0472 122.76 88.2211C122.503 88.3949 122.215 88.5159 121.911 88.577C121.608 88.6382 121.295 88.6383 120.991 88.5773C120.688 88.5162 120.399 88.3954 120.143 88.2217C119.882 88.0554 119.657 87.8381 119.482 87.5827C119.307 87.3274 119.186 87.0392 119.125 86.7357C119.064 86.4322 119.065 86.1195 119.128 85.8165C119.191 85.5134 119.315 85.2263 119.492 84.9723C120.415 83.463 121.427 82.0129 122.41 80.5331C124.458 77.4672 126.5 74.3894 128.56 71.3293C129.903 69.3288 131.324 69.1808 133.022 70.8736C135.289 73.1286 137.527 75.4133 139.888 77.7986C140.214 77.3724 140.48 77.0587 140.711 76.7155C142.984 73.318 145.253 69.9206 147.518 66.5232C148.571 64.9666 149.885 64.5641 151.116 65.3868C152.347 66.2095 152.507 67.5709 151.466 69.1394C148.53 73.5667 145.57 77.988 142.587 82.4034C141.315 84.2975 139.853 84.4159 138.213 82.7823C135.946 80.4976 133.674 78.1893 131.288 75.7803Z" fill="#677580"/>
<path d="M139.929 123.054C137.562 125.475 135.301 127.759 133.04 130.02C131.335 131.719 129.903 131.577 128.571 129.594C125.647 125.226 122.729 120.848 119.817 116.46C118.77 114.874 118.894 113.548 120.131 112.708C121.368 111.867 122.682 112.24 123.729 113.803C126.221 117.514 128.689 121.237 131.27 125.102L138 118.354C139.977 116.383 141.291 116.508 142.841 118.834C145.712 123.125 148.565 127.428 151.441 131.713C152.081 132.672 152.471 133.637 151.832 134.732C150.897 136.318 148.873 136.294 147.689 134.619C145.416 131.287 143.202 127.919 140.959 124.557C140.675 124.119 140.367 123.681 139.929 123.054Z" fill="#677580"/>
</g>
</svg>
