<svg width="200" height="200" viewBox="0 0 200 200" fill="none" xmlns="http://www.w3.org/2000/svg">
<mask id="mask0_3604_39974" style="mask-type:alpha" maskUnits="userSpaceOnUse" x="0" y="0" width="200" height="200">
<rect width="200" height="200" fill="#D9D9D9"/>
</mask>
<g mask="url(#mask0_3604_39974)">
<g clip-path="url(#clip0_3604_39974)">
<path d="M106.293 81.8836C106.293 94.0428 106.286 106.201 106.271 118.358C106.252 118.776 106.337 119.193 106.519 119.57C106.701 119.947 106.974 120.273 107.313 120.518C116.425 128.212 119.895 138.015 116.788 149.489C113.68 160.963 105.762 167.724 94.0484 169.585C78.7341 172.017 64.2725 160.606 62.8103 145.134C61.8628 135.027 65.4695 126.765 73.3335 120.392C74.12 119.76 74.1642 119.088 74.161 118.26C74.161 94.4428 74.161 70.6276 74.161 46.8145C74.161 40.4728 76.716 35.5206 82.164 32.2361C92.5198 25.9922 106.148 33.572 106.255 45.6807C106.362 57.7894 106.277 69.816 106.277 81.8836H106.293ZM103.011 82.771C103.011 70.4728 103.075 58.1716 102.98 45.8765C102.942 40.9181 100.551 37.1282 96.1865 34.8227C91.8219 32.5172 87.4698 32.732 83.3515 35.3849C79.1763 38.0725 77.4455 42.0803 77.4519 47.0008C77.4834 71.1866 77.494 95.3734 77.4835 119.561C77.4835 120.847 77.1676 121.75 76.0496 122.543C66.8907 129.033 63.4767 140.98 67.7371 151.466C71.9407 161.812 82.8146 168.028 93.7957 166.363C103.586 164.879 111.58 157.593 113.879 148.083C115.053 143.364 114.781 138.401 113.096 133.838C111.412 129.276 108.395 125.326 104.436 122.502C103.961 122.203 103.576 121.781 103.322 121.28C103.068 120.779 102.955 120.219 102.996 119.659C103.027 107.365 103.031 95.0692 103.008 82.771H103.011Z" fill="#677580"/>
<path d="M124.98 77.0704C121.481 77.0704 117.982 77.0704 114.482 77.0704C112.973 77.0704 112.271 76.5619 112.234 75.4913C112.199 74.367 112.954 73.7858 114.501 73.7826C121.591 73.7826 128.682 73.7511 135.772 73.8269C136.445 73.8269 137.266 74.3669 137.717 74.9038C137.951 75.1881 137.698 76.1671 137.354 76.5587C137.01 76.9504 136.306 77.0388 135.753 77.0451C132.162 77.0893 128.571 77.0704 124.98 77.0704Z" fill="#677580"/>
<path d="M125.057 98.6348C128.604 98.6348 132.147 98.6348 135.694 98.6348C137.118 98.6348 137.905 99.2412 137.905 100.277C137.905 101.313 137.115 101.916 135.694 101.916C128.605 101.916 121.515 101.916 114.426 101.916C112.948 101.916 112.234 101.367 112.234 100.28C112.234 99.1938 112.954 98.6379 114.42 98.6348C117.967 98.6284 121.513 98.6348 125.057 98.6348Z" fill="#677580"/>
<path d="M125.057 52.2151C121.513 52.2151 117.969 52.2151 114.423 52.2151C112.935 52.2151 112.234 51.6782 112.234 50.5918C112.234 49.5054 112.964 48.9369 114.429 48.9337C121.516 48.9337 128.605 48.9337 135.694 48.9337C137.099 48.9337 137.905 49.5654 137.905 50.6013C137.905 51.6372 137.128 52.2119 135.678 52.2151C132.141 52.2193 128.6 52.2193 125.057 52.2151Z" fill="#677580"/>
<path d="M119.531 61.4308C121.262 61.4308 123.005 61.4308 124.72 61.4308C125.848 61.4308 126.65 61.8918 126.663 63.0446C126.675 64.1974 125.883 64.7185 124.768 64.7216C121.218 64.7216 117.668 64.7216 114.118 64.7216C113.01 64.7216 112.223 64.2289 112.261 63.0256C112.299 61.8223 113.114 61.4465 114.213 61.4465C115.981 61.4402 117.756 61.4308 119.531 61.4308Z" fill="#677580"/>
<path d="M119.362 89.4537C117.634 89.4537 115.907 89.4537 114.179 89.4537C113.096 89.4537 112.259 89.0621 112.246 87.8367C112.234 86.6113 113.048 86.1817 114.141 86.1786C117.689 86.1786 121.237 86.1786 124.784 86.1786C125.896 86.1786 126.679 86.706 126.679 87.8683C126.657 88.9516 125.89 89.4474 124.835 89.4474C123.003 89.4569 121.181 89.4506 119.362 89.4537Z" fill="#677580"/>
<path d="M119.331 114.278C117.603 114.278 115.872 114.278 114.145 114.278C113.033 114.278 112.25 113.854 112.25 112.638C112.25 111.423 113.1 111.006 114.173 110.999C117.676 110.984 121.178 110.974 124.681 110.999C125.944 110.999 126.797 111.751 126.68 112.733C126.541 113.902 125.764 114.312 124.656 114.281C122.881 114.259 121.106 114.278 119.331 114.278Z" fill="#677580"/>
<path d="M95.6444 85.2722C95.6444 98.2084 95.637 111.144 95.6223 124.081C95.5875 124.498 95.6721 124.917 95.8661 125.288C96.0601 125.659 96.3556 125.968 96.7182 126.178C98.6384 127.466 100.644 128.704 102.283 130.321C107.573 135.513 108.678 143.665 105.185 150.237C103.506 153.412 100.859 155.97 97.6288 157.54C94.3982 159.11 90.7515 159.61 87.2176 158.967C83.6836 158.325 80.4461 156.574 77.9743 153.968C75.5025 151.362 73.925 148.036 73.4704 144.473C72.6556 137.86 75.0495 132.532 80.2859 128.455C80.5933 128.183 80.9352 127.952 81.3028 127.769C84.2779 126.566 84.9285 124.419 84.9095 121.26C84.7548 96.6261 84.8179 71.9728 84.8369 47.3291C84.7968 46.3315 84.9032 45.3334 85.1527 44.3667C85.5436 43.1643 86.3478 42.1392 87.4225 41.4732C88.4972 40.8072 89.7732 40.5433 91.0239 40.7284C92.2744 40.9199 93.4184 41.5435 94.2567 42.491C95.0951 43.4384 95.5749 44.6497 95.6128 45.9142C95.6696 49.5588 95.6318 53.2035 95.6318 56.8481L95.6444 85.2722ZM88.1088 86.1912C88.1088 99.14 88.0836 112.064 88.1404 125C88.1404 126.607 87.6667 127.649 86.2771 128.442C84.9086 129.256 83.5864 130.144 82.3166 131.105C78.6594 133.773 76.7202 137.421 76.575 141.918C76.3634 148.472 80.9586 154.21 87.4235 155.647C93.5979 157.018 100.056 153.717 102.716 147.834C104.011 144.964 104.274 141.734 103.459 138.692C102.645 135.651 100.803 132.984 98.2468 131.146C96.8793 130.163 95.5054 129.178 94.0558 128.335C92.7546 127.577 92.3314 126.595 92.3314 125.098C92.3714 99.181 92.3809 73.2625 92.3598 47.3418C92.3895 46.8416 92.3779 46.3398 92.3251 45.8416C92.1356 44.7173 91.4313 44.0162 90.2943 43.9909C89.1574 43.9656 88.3994 44.6225 88.1941 45.7468C88.116 46.2874 88.0885 46.8341 88.112 47.3797C88.1099 60.3158 88.1088 73.254 88.1088 86.1944V86.1912Z" fill="#677580"/>
</g>
</g>
<defs>
<clipPath id="clip0_3604_39974">
<rect width="75.2418" height="139.913" fill="white" transform="translate(62.6797 30)"/>
</clipPath>
</defs>
</svg>
