<svg width="200" height="200" viewBox="0 0 200 200" fill="none" xmlns="http://www.w3.org/2000/svg">
<mask id="mask0_3604_39953" style="mask-type:alpha" maskUnits="userSpaceOnUse" x="0" y="0" width="200" height="200">
<rect width="200" height="200" fill="#D9D9D9"/>
</mask>
<g mask="url(#mask0_3604_39953)">
<path d="M119.76 65.1094C120.358 65.9314 121.45 66.7377 121.478 67.5792C121.745 73.9153 121.536 80.2626 120.852 86.5673C120.214 85.6905 119.051 84.8333 119.024 83.9408C118.844 77.8581 118.906 71.7675 118.891 65.6808L119.76 65.1094Z" fill="#677580"/>
<path d="M116.826 87.671C111.483 94.6658 102.832 100.248 99.8496 98.8189C105.698 94.9398 110.05 89.2759 116.826 87.671Z" fill="#677580"/>
<path d="M79.9673 66.2485C79.9673 72.0768 79.9986 77.9051 79.9125 83.7334C79.9125 84.3245 79.1806 84.9077 78.7852 85.487C78.3351 84.9547 77.5053 84.4302 77.4975 83.8861C77.3957 78.5275 77.3722 73.1689 77.4975 67.8102C77.4975 67.1057 78.4956 66.4246 79.0279 65.7357L79.9673 66.2485Z" fill="#677580"/>
<path d="M91.135 110.542L74.7773 100.154L74.9809 98.9794C76.1317 99.0498 77.4938 98.725 78.398 99.2573C82.6724 101.759 86.8606 104.424 90.9667 107.219C91.6439 107.681 91.7495 109.063 92.141 110.018L91.135 110.542Z" fill="#677580"/>
<path d="M73.5254 147.011C81.4126 139.112 87.7028 135.096 90.3997 136.145C86.3994 141.496 76.3163 148.158 73.5254 147.011Z" fill="#677580"/>
<path d="M53.9987 110.773L52.7305 108.538L68.5714 98.6819L69.4678 99.2416C68.9903 100.177 68.7358 101.488 67.9921 101.982C63.479 104.96 58.8563 107.751 53.9987 110.773Z" fill="#677580"/>
<path d="M106.902 134.74L123.385 146.177L122.097 148.381C111.556 142.51 106.789 138.411 106.902 134.74Z" fill="#677580"/>
<path d="M126.721 99.6409C127.562 99.4021 128.678 98.6701 129.202 98.9989C134.115 102.181 138.921 105.54 143.759 108.847C143.681 109.27 143.607 109.693 143.532 110.115C142.491 110.045 141.235 110.346 140.452 109.845C135.9 106.925 131.449 103.813 126.979 100.768L126.721 99.6409Z" fill="#677580"/>
<path d="M104.424 130.106V110.797L105.179 110.143C105.743 110.867 106.776 111.575 106.796 112.315C106.937 117.678 106.937 123.043 106.796 128.411C106.776 129.194 105.907 129.957 105.43 130.732L104.424 130.106Z" fill="#677580"/>
<path d="M107.129 63.1685H110.828L99.8721 88.0044H96.8073L85.8865 63.1685H89.6559L98.3925 83.4247L107.129 63.1685Z" fill="#677580"/>
<path d="M71.8754 136.439C69.5268 136.439 67.4836 135.923 65.7457 134.889C64.0312 133.856 62.7043 132.388 61.7649 130.486C60.8255 128.583 60.3557 126.341 60.3557 123.757C60.3557 121.15 60.8137 118.896 61.7296 116.993C62.6691 115.067 64.0077 113.6 65.7457 112.59C67.4836 111.556 69.5268 111.04 71.8754 111.04C74.2474 111.04 76.3024 111.556 78.0403 112.59C79.7783 113.6 81.1052 115.067 82.0211 116.993C82.9606 118.896 83.4303 121.138 83.4303 123.722C83.4303 126.305 82.9606 128.56 82.0211 130.486C81.1052 132.388 79.7783 133.856 78.0403 134.889C76.3024 135.923 74.2474 136.439 71.8754 136.439ZM71.8754 133.48C74.3649 133.48 76.3024 132.635 77.6881 130.944C79.0737 129.253 79.7665 126.845 79.7665 123.722C79.7665 120.598 79.0737 118.203 77.6881 116.535C76.3259 114.844 74.3883 113.999 71.8754 113.999C69.4094 113.999 67.4836 114.844 66.098 116.535C64.7358 118.203 64.0547 120.598 64.0547 123.722C64.0547 126.845 64.7358 129.253 66.098 130.944C67.4836 132.635 69.4094 133.48 71.8754 133.48Z" fill="#677580"/>
<path d="M128.239 136.439C125.844 136.439 123.753 135.923 121.969 134.889C120.207 133.856 118.845 132.388 117.882 130.486C116.943 128.56 116.473 126.305 116.473 123.722C116.473 121.138 116.943 118.896 117.882 116.993C118.845 115.067 120.207 113.6 121.969 112.59C123.753 111.556 125.844 111.04 128.239 111.04C129.93 111.04 131.504 111.31 132.96 111.85C134.416 112.367 135.649 113.118 136.659 114.105L135.391 116.782C134.24 115.819 133.089 115.126 131.938 114.703C130.811 114.281 129.59 114.069 128.274 114.069C125.691 114.069 123.695 114.903 122.286 116.571C120.9 118.238 120.207 120.622 120.207 123.722C120.207 126.822 120.9 129.217 122.286 130.908C123.695 132.576 125.691 133.41 128.274 133.41C129.59 133.41 130.811 133.198 131.938 132.776C133.089 132.353 134.24 131.66 135.391 130.697L136.659 133.374C135.649 134.361 134.416 135.124 132.96 135.664C131.504 136.181 129.93 136.439 128.239 136.439Z" fill="#677580"/>
<path d="M125.201 59.9739L99.4063 43.9254L73.6152 59.9739V92.0747L99.4063 108.123L125.201 92.0747V59.9739Z" stroke="#677580" stroke-width="3.35" stroke-miterlimit="10"/>
<path d="M150.719 107.293L124.928 91.2448L99.1367 107.293V139.394L124.928 155.442L150.719 139.394V107.293Z" stroke="#677580" stroke-width="3.35" stroke-miterlimit="10"/>
<path d="M98.9961 107.293L73.2012 91.2448L47.4102 107.293V139.394L73.2012 155.442L98.9961 139.394V107.293Z" stroke="#677580" stroke-width="3.35" stroke-miterlimit="10"/>
<path d="M99.4053 32.4957V43.9253L73.6143 59.9738L64.5098 52.294" stroke="#677580" stroke-width="3.35" stroke-miterlimit="10"/>
<path d="M133.884 52.9281L125.656 60.4278L99.8652 44.3794V32.4957" stroke="#677580" stroke-width="3.35" stroke-miterlimit="10"/>
<path d="M160.213 102.745L150.717 107.293L126.656 92.3212" stroke="#677580" stroke-width="3.35" stroke-miterlimit="10"/>
<path d="M162 143.387L150.719 138.098V107.293L160.215 102.745" stroke="#677580" stroke-width="3.35" stroke-miterlimit="10"/>
<path d="M98.9883 140.02L123.856 154.777V166.563" stroke="#677580" stroke-width="3.35" stroke-miterlimit="10"/>
<path d="M39.5215 146.984L48.1446 140.02L71.9667 154.675V167.107" stroke="#677580" stroke-width="3.35" stroke-miterlimit="10"/>
<path d="M73.2003 91.2448L47.4092 107.293L37.3457 98.8149" stroke="#677580" stroke-width="3.35" stroke-miterlimit="10"/>
</g>
</svg>
